# xmcd
#
# Track frame offsets:
#	150
#	11066
#	22594
#	36373
#	50464
#	62926
#	75527
#	86390
#	97758
#	108748
#	123567
#	136823
#	147676
#	162989
#	173201
#	186198
#	197690
#	209331
#
# Disc length: 2910
#
# Revision: 3
# Processed by: cddbd v1.5.1PL0 Copyright (c) Steve Scherf et al.
# Submitted via: CDex 1.51
# Normalized: r2:DSETVAR1
#
DISCID=f60b5c12
DTITLE=Various Artist - Shot of Country CD 4
DYEAR=2000
DGENRE=Country
TTITLE0=Sammi Smith - Help me make it through the night
TTITLE1=Skeeter Davis - Crying time
TTITLE2=B.J. Thomas - I'm so lonesome I could cry
TTITLE3=Billie Jo Spears - Which way you goin' Billy
TTITLE4=Lynn Anderson - Stand by your man
TTITLE5=Faron Young - It's four in the morning
TTITLE6=Carl Belew - Am I that easy to forget
TTITLE7=Dolly Parton - Makin' believe
TTITLE8=Hank Locklin - Send me the pillow
TTITLE9=The Kingston Trio - Tom Dooley
TTITLE10=Donna Fargo - Daddy
TTITLE11=Patsy Cline - I cried all the way to the altar
TTITLE12=Bobby Bare - Leaving on a jet plane
TTITLE13=Johnny Cash - Goodbye little darling
TTITLE14=Charlie Rich - I take it on home
TTITLE15=Willie Nelson - Suffering in silence
TTITLE16=Buck Owens - Foolin' around
TTITLE17=Frankie Lane - Rawhide
EXTD=YEAR: 2000
EXTT0=
EXTT1=
EXTT2=
EXTT3=
EXTT4=
EXTT5=
EXTT6=
EXTT7=
EXTT8=
EXTT9=
EXTT10=
EXTT11=
EXTT12=
EXTT13=
EXTT14=
EXTT15=
EXTT16=
EXTT17=
PLAYORDER=
